<svg xmlns="http://www.w3.org/2000/svg" width="384" height="384" viewBox="0 0 384 384">
  <rect width="384" height="384" rx="77" fill="#4f46e5"/>
  <g transform="translate(58, 58)">
    <svg width="268" height="268" viewBox="0 0 24 24" fill="none" stroke="white" stroke-width="2" stroke-linecap="round" stroke-linejoin="round">
      <path d="M16.5 9.4 7.55 4.24"/>
      <path d="M21 16V8a2 2 0 0 0-1-1.73l-7-4a2 2 0 0 0-2 0l-7 4A2 2 0 0 0 3 8v8a2 2 0 0 0 1 1.73l7 4a2 2 0 0 0 2 0l7-4A2 2 0 0 0 21 16z"/>
      <polyline points="3.29 7 12 12 20.71 7"/>
      <line x1="12" y1="22" x2="12" y2="12"/>
    </svg>
  </g>
</svg>